<svg width="19" height="19" viewBox="0 0 19 19" fill="none" xmlns="http://www.w3.org/2000/svg">
<path fill-rule="evenodd" clip-rule="evenodd" d="M0 8C0 3.58892 3.58892 0 8 0C12.4113 0 16 3.58892 16 8C16 12.4113 12.4113 16 8 16C3.58892 16 0 12.4113 0 8ZM1.47692 8.00004C1.47692 11.5968 4.4032 14.5231 8 14.5231C11.5968 14.5231 14.5231 11.5968 14.5231 8C14.5231 4.4032 11.5968 1.47692 8 1.47692C4.4032 1.47692 1.47692 4.40324 1.47692 8.00004Z" fill="#8F96AD"/>
<path d="M18.7727 17.6756L14.3244 13.2273C14.0213 12.9242 13.5304 12.9242 13.2273 13.2273C12.9242 13.5302 12.9242 14.0216 13.2273 14.3244L17.6756 18.7727C17.8271 18.9242 18.0255 19 18.2241 19C18.4225 19 18.6211 18.9242 18.7727 18.7727C19.0758 18.4698 19.0758 17.9784 18.7727 17.6756Z" fill="#8F96AD"/>
</svg>
