<svg width="20" height="18" viewBox="0 0 20 18" fill="none" xmlns="http://www.w3.org/2000/svg">
<path d="M14.7199 4.84269L2.6097 6.45826C2.0995 6.52631 1.67707 6.86984 1.50723 7.35469C1.33742 7.83959 1.45443 8.36809 1.81264 8.73391L4.64168 11.6231L8.90477 9.16184C9.10094 9.04859 9.35121 9.11474 9.46373 9.30963C9.57624 9.5045 9.50843 9.75433 9.31224 9.8676L5.04915 12.3289L6.13676 16.2235C6.27448 16.7167 6.67364 17.0823 7.17849 17.1776C7.68433 17.2731 8.19258 17.0781 8.50608 16.671L15.9603 6.99109C16.2997 6.55037 16.3387 5.97903 16.0622 5.50001C15.7856 5.021 15.2713 4.76909 14.7199 4.84269Z" fill="white"/>
</svg>
