<svg width="20" height="14" viewBox="0 0 20 14" fill="none" xmlns="http://www.w3.org/2000/svg">
<path d="M9.57119 4.94839C7.30119 4.94839 5.22479 6.10279 4.01719 8.03599C3.72479 8.50439 3.86719 9.12119 4.33559 9.41399C4.80359 9.70599 5.42079 9.56399 5.71359 9.09519C6.55319 7.75079 7.99559 6.94839 9.57119 6.94839C11.1468 6.94839 12.5888 7.75079 13.4288 9.09519C13.6184 9.39919 13.9444 9.56599 14.2776 9.56599C14.4588 9.56599 14.6416 9.51679 14.8064 9.41399C15.2748 9.12159 15.4172 8.50479 15.1248 8.03599C13.9176 6.10279 11.8416 4.94839 9.57119 4.94839Z" fill="white"/>
<path d="M18.9904 5.62801C16.946 2.35321 13.4248 0.398407 9.57122 0.398407C5.71762 0.398407 2.19682 2.35321 0.152021 5.62801C-0.140379 6.09641 0.0020214 6.71321 0.470421 7.00561C0.939221 7.29761 1.55602 7.15561 1.84842 6.68721C3.52522 4.00161 6.41242 2.39841 9.57122 2.39841C12.73 2.39841 15.6172 4.00161 17.294 6.68721C17.4836 6.99081 17.8096 7.15761 18.1428 7.15761C18.3236 7.15761 18.5068 7.10881 18.6716 7.00561C19.1404 6.71281 19.2828 6.09641 18.9904 5.62801Z" fill="white"/>
<circle cx="9.5712" cy="11.498" r="1.6456" fill="white"/>
</svg>
